Coordinates
version=1
nRows=9
nColumns=36
inDegrees=yes

Units are S.I. units (second, meters, Newtons, ...)
If the header above contains a line with 'inDegrees', this indicates whether rotational values are in degrees (yes) or radians (no).

endheader
time	pelvis_tilt	pelvis_list	pelvis_rotation	pelvis_tx	pelvis_ty	pelvis_tz	hip_flexion_r	hip_adduction_r	hip_rotation_r	knee_angle_r	knee_angle_r_beta	ankle_angle_r	subtalar_angle_r	mtp_angle_r	hip_flexion_l	hip_adduction_l	hip_rotation_l	knee_angle_l	knee_angle_l_beta	ankle_angle_l	subtalar_angle_l	mtp_angle_l	lumbar_extension	lumbar_bending	lumbar_rotation	arm_flex_r	arm_add_r	arm_rot_r	elbow_flex_r	pro_sup_r	arm_flex_l	arm_add_l	arm_rot_l	elbow_flex_l	pro_sup_l
      0.00000000	      5.56689654	     -3.05070739	     -1.13124532	     -0.95463576	      1.24146412	     -0.06391291	     -5.58582856	      2.29155759	     -2.48177189	      8.40255771	      0.14665230	     -0.29472443	    -19.10174219	     -5.49015959	     -8.08371520	     -3.95815180	     -0.29017083	      5.84553504	      0.10202383	     10.57620848	     -7.00302745	     -5.49015959	    -16.12794507	      4.59624593	      0.42171762	      7.99947153	    -14.36441705	      0.70886004	     30.59255276	     82.55394415	      2.48094323	    -11.86297789	      8.01761370	     33.69972045	     72.85057402
      0.00416670	      2.35251031	     -1.77109860	     -1.14722372	     -0.95068835	      1.23776218	     -0.06455453	     -1.75510355	      1.38118855	     -1.66885202	      8.94348067	      0.15609318	      3.77811219	    -16.37975368	     -5.54044429	     -3.28228326	     -2.21640523	     -0.54143787	      7.53253777	      0.13146759	     10.45621216	     -5.41532937	     -5.54044429	    -11.20403011	      3.32482917	     -0.17141975	      6.76200763	    -13.94227820	     -0.94236206	     30.11068565	     82.39860957	      2.20855879	    -11.80969365	      5.74222969	     31.72488845	     72.66166058
      0.00833330	      1.90351772	     -1.04667813	     -1.45863512	     -0.95019207	      1.24125594	     -0.06479346	     -1.74562476	      0.48637878	     -2.68435482	      7.99237759	      0.13949330	      4.70900509	    -14.54681548	     -5.57894669	     -2.93425069	     -1.55572188	     -1.97819064	      7.39887897	      0.12913480	      9.75991202	     -4.74569591	     -5.57894669	    -10.24505285	      2.30044849	     -0.29825819	      6.63826995	    -13.83206839	     -1.59276608	     30.25061253	     82.14379465	      2.38014843	    -12.51006128	      5.78125313	     30.97285204	     72.79862147
      0.01250000	      2.53457482	     -0.68809733	     -1.45568869	     -0.95010246	      1.24566027	     -0.06520419	     -2.80013965	      0.02088600	     -3.46606965	      7.33065333	      0.12794404	      5.98352041	    -12.16207354	     -6.05527796	     -4.15149315	     -1.03609669	     -2.22347814	      6.65258309	      0.11610948	      9.30375703	     -4.65701319	     -6.05527796	    -11.00907100	      1.73180367	      0.34655345	      5.97998864	    -13.79793993	     -2.96849425	     31.00489924	     78.96055764	      3.46516789	    -13.35977245	      9.16361207	     30.06770013	     72.58426715
      0.01666670	      3.08606636	     -0.58351719	     -1.46299139	     -0.95002657	      1.24324225	     -0.06447557	     -3.73831383	     -0.01030717	     -3.60329715	      6.72603590	      0.11739147	      6.63538356	    -11.30558027	     -6.10372505	     -5.06374002	     -0.85946551	     -2.41499785	      6.10371547	      0.10652993	      9.15732254	     -4.56324482	     -6.10372505	    -11.79147337	      1.54867590	      0.44488159	      5.83683867	    -13.77113874	     -3.38648212	     31.68994017	     77.62316063	      3.70593363	    -13.76504177	      9.97860135	     30.32798629	     72.22136593
      0.02083330	      3.61374512	     -0.55868841	     -1.37288813	     -0.95003328	      1.24533667	     -0.06435567	     -4.63821214	      0.02638824	     -3.65117626	      6.16398002	      0.10758175	      6.81517684	    -11.09944124	     -6.31152129	     -5.84447206	     -0.78790592	     -2.36901953	      5.67646632	      0.09907303	      9.08915856	     -4.31735715	     -6.31152129	    -12.54354294	      1.47395663	      0.52046481	      5.80953438	    -13.74650880	     -3.63090299	     32.06463734	     75.77064758	      4.09457756	    -13.85700986	     10.24150536	     30.45111072	     71.08341780
      0.02500000	      3.88872238	     -0.56889732	     -1.23260940	     -0.95001933	      1.24323225	     -0.06436027	     -5.22380897	      0.07896982	     -3.79753972	      5.67483849	      0.09904462	      7.00903520	    -11.03011485	     -6.57120308	     -6.21099901	     -0.76130614	     -2.05724161	      5.42435745	      0.09467290	      9.05114853	     -4.59989011	     -6.57120308	    -12.88423375	      1.47026362	      0.68050547	      5.64693775	    -13.80675780	     -3.62260399	     32.35947041	     73.94733743	      4.66283770	    -14.02855459	     11.76298248	     30.15242566	     70.32636872
      0.02916670	      4.22928488	     -0.58880164	     -1.13590642	     -0.94968800	      1.24110105	     -0.06319853	     -5.83410053	      0.16664296	     -3.94531461	      5.26558607	      0.09190181	      7.20807283	    -10.92025250	     -6.76139774	     -6.61860842	     -0.83176194	     -2.05885179	      5.20749801	      0.09088799	      9.12355879	     -4.66521345	     -6.76139774	    -13.36370798	      1.42754710	      0.69857739	      5.51236112	    -13.74454963	     -3.84227157	     32.96505526	     72.03242377	      4.73034829	    -14.10795750	     11.54893823	     30.72096177	     68.85466032
      0.03333330	      4.29786516	     -0.59376135	     -1.05491247	     -0.95031948	      1.24238782	     -0.06315325	     -6.06753405	      0.24785006	     -3.87540362	      4.92142461	      0.08589506	      7.28983475	    -11.12162589	     -6.89373496	     -6.64558850	     -0.87750853	     -1.85439380	      5.14559477	      0.08980757	      9.02510710	     -5.01450837	     -6.89373496	    -13.44661536	      1.38448309	      0.70053318	      5.52194052	    -13.68565357	     -3.63633923	     32.91928648	     70.77889036	      4.98899478	    -14.12220016	     11.85604539	     30.58593144	     67.91163129
